<?xml version="1.0" encoding="iso-8859-1"?>
<!-- Generator: Adobe Illustrator 19.0.0, SVG Export Plug-In . SVG Version: 6.00 Build 0)  -->
<svg version="1.1" id="Capa_1" xmlns="http://www.w3.org/2000/svg" xmlns:xlink="http://www.w3.org/1999/xlink" x="0px" y="0px"
	 viewBox="0 0 512.004 512.004" style="enable-background:new 0 0 512.004 512.004;" xml:space="preserve">
<rect x="227.789" y="330.03" style="fill:#E0B39B;" width="56.43" height="50.889"/>
<polygon style="fill:#7ECAE6;" points="194.633,376.904 317.378,376.904 256.01,450.34 "/>
<g>
	<path style="fill:#8CE0FF;" d="M93.526,495.035v-45.417c0-40.094,32.614-72.714,72.704-72.714h33.636l58.152,69.576v48.555
		L93.526,495.035L93.526,495.035z"/>
	<path style="fill:#8CE0FF;" d="M254.002,495.035V446.48l58.143-69.575h33.625c40.094,0,72.714,32.619,72.714,72.714v45.417H254.002
		z"/>
</g>
<g>
	<path style="fill:#917464;" d="M340.911,149.778c-33.096,0-63.895-14.591-84.901-40.126c-21.005,25.535-51.805,40.126-84.9,40.126
		c-5.465,0-10.943-0.406-16.282-1.207c-9.031-1.337-17.875-3.808-26.281-7.343l-1.297-0.545l0.07-1.405
		C130.749,70.694,187.273,16.971,256,16.971c68.738,0,125.26,53.729,128.679,122.317l0.07,1.406l-1.299,0.544
		c-8.454,3.545-17.297,6.012-26.285,7.333C351.854,149.371,346.384,149.778,340.911,149.778z"/>
	<path style="fill:#917464;" d="M447.945,192.605c-5.337,0-10.48-0.67-15.286-1.989c-33.482-9.184-51.095-49.039-51.828-50.731
		l-0.643-1.481l1.308-0.945c1.082-0.782,26.826-19.16,55.195-19.16c5.332,0,10.47,0.668,15.271,1.985
		c33.483,9.194,51.103,49.048,51.838,50.74l0.643,1.481l-1.308,0.946C502.054,174.233,476.313,192.605,447.945,192.605z"/>
</g>
<path style="fill:#E0B39B;" d="M356.864,236.968v-77.924h11.586c21.518,0,38.962,17.444,38.962,38.962l0,0
	c0,21.518-17.444,38.962-38.962,38.962L356.864,236.968L356.864,236.968z"/>
<path style="fill:#FBC8AD;" d="M256,334.047c-28.006,0-54.346-10.909-74.163-30.716c-19.807-19.818-30.716-46.156-30.716-74.163
	v-62.323c0-6.967,0.686-13.916,2.036-20.654l0.375-1.874l1.891,0.283c5.141,0.772,10.419,1.163,15.685,1.163
	c32.695,0,63.064-14.782,83.322-40.554l1.578-2.008l1.578,2.008c20.259,25.773,50.629,40.554,83.323,40.554
	c5.273,0,10.542-0.392,15.664-1.163l2.307-0.347v2.144c1.325,6.666,1.997,13.545,1.997,20.448v62.323
	C360.879,286.998,313.83,334.047,256,334.047z"/>
<path style="fill:#E0B39B;" d="M143.551,236.968c-21.518,0-38.962-17.444-38.962-38.962l0,0c0-21.518,17.444-38.962,38.962-38.962
	h11.586v77.924L143.551,236.968L143.551,236.968z"/>
<path style="fill:#917464;" d="M64.055,192.605c-28.371,0-54.108-18.372-55.191-19.154l-1.308-0.945l0.643-1.481
	c0.734-1.693,18.356-41.546,51.838-50.74c4.801-1.317,9.939-1.985,15.271-1.985c28.374,0,54.113,18.378,55.195,19.16l1.307,0.945
	l-0.642,1.481c-0.733,1.693-18.347,41.547-51.828,50.731C74.535,191.935,69.392,192.605,64.055,192.605z"/>
<path d="M4.159,179.96c1.368,0.99,29.011,20.671,59.934,20.671c5.726,0,11.569-0.676,17.375-2.27h-0.003
	c5.581-1.531,10.752-3.812,15.519-6.583c-0.271,2.039-0.426,4.115-0.426,6.227c0,25.912,21.081,46.993,46.994,46.993h0.641
	c3.369,24.149,14.421,46.456,31.968,64.013c12.479,12.473,27.362,21.661,43.6,27.145v32.716h-19.514
	c-0.935-0.132-1.884-0.134-2.824,0h-31.191c-44.518,0-80.735,36.222-80.735,80.745v43.409c0,5.545,4.496,10.039,10.039,10.039
	h320.941c5.544,0,10.039-4.495,10.039-10.039v-43.409c0-44.523-36.222-80.745-80.745-80.745h-31.184
	c-0.939-0.132-1.887-0.132-2.82,0h-19.514v-32.764c39.706-13.497,69.541-48.527,75.544-91.11h0.655
	c25.912,0,46.993-21.081,46.993-46.994c0-2.112-0.154-4.187-0.425-6.226c4.766,2.77,9.936,5.051,15.516,6.581
	c5.808,1.594,11.646,2.27,17.375,2.27c30.92-0.001,58.566-19.681,59.934-20.671c3.82-2.761,5.204-7.806,3.329-12.13
	c-0.797-1.836-19.93-45.089-57.082-55.291c-23.893-6.554-48.334,2.448-63.18,10.022C379.859,57.671,323.47,8.938,256,8.938
	c-67.464,0-123.854,48.734-134.907,113.623c-14.847-7.575-39.288-16.576-63.184-10.022c-37.15,10.202-56.283,53.454-57.08,55.29
	C-1.045,172.153,0.339,177.199,4.159,179.96z M134.064,151.851c0.081,0.027,0.162,0.053,0.243,0.08
	c-0.107,0.021-0.217,0.041-0.324,0.063C134.01,151.946,134.037,151.898,134.064,151.851z M116.636,198.006
	c0-14.687,11.824-26.664,26.454-26.911v53.822C128.46,224.67,116.636,212.693,116.636,198.006z M291.609,388.951l-35.601,42.601
	l-35.607-42.601H291.609z M105.573,449.618c0-33.452,27.21-60.667,60.657-60.667h28.006l51.735,61.9v32.136H105.573
	C105.573,482.987,105.573,449.618,105.573,449.618z M406.437,449.618v33.37H266.049v-32.136l51.729-61.901h27.993
	C379.222,388.951,406.437,416.166,406.437,449.618z M272.173,342.078v26.795h-32.336v-26.795H272.173z M256,322
	c-24.79,0-48.105-9.656-65.643-27.186c-17.533-17.542-27.189-40.855-27.189-65.647v-62.323c0-3.109,0.156-6.212,0.46-9.288
	c2.489,0.157,4.985,0.253,7.481,0.253c32.383,0,62.719-13.018,84.9-36.083c22.185,23.065,52.518,36.083,84.901,36.083
	c2.492,0,4.98-0.095,7.46-0.252c0.305,3.074,0.46,6.177,0.46,9.287v62.323C348.832,280.355,307.188,322,256,322z M377.939,151.855
	c0.026,0.046,0.052,0.093,0.079,0.14c-0.104-0.021-0.209-0.041-0.314-0.062C377.782,151.907,377.861,151.881,377.939,151.855z
	 M368.911,224.917v-53.822c14.629,0.247,26.454,12.225,26.454,26.912C395.364,212.693,383.54,224.67,368.911,224.917z
	 M448.773,131.901c19.806,5.438,33.633,25.238,40.003,36.304c-11.133,6.268-33.129,16.23-52.927,10.793c-0.001,0-0.002,0-0.002,0
	c-19.837-5.441-33.671-25.294-40.024-36.348C408.284,135.643,430.118,126.785,448.773,131.901z M256,29.017
	c59.878,0,109.528,44.967,116.066,103.646c-5.438,1.824-11.014,3.16-16.652,3.99c-0.012,0.001-0.023,0.003-0.035,0.005
	c-4.726,0.712-9.594,1.073-14.467,1.073c-30.215,0-58.283-13.663-77.009-37.486c-1.903-2.421-4.814-3.835-7.893-3.835
	c-3.08,0-5.989,1.414-7.893,3.835c-18.724,23.823-46.793,37.486-77.008,37.486c-4.87,0-9.746-0.361-14.513-1.076
	c-5.665-0.838-11.244-2.178-16.662-3.996C146.481,73.984,196.131,29.017,256,29.017z M63.224,131.902
	c19.84-5.441,41.869,4.57,52.976,10.832c-7.137,12.385-21.388,31.146-40.046,36.265c0,0-0.002,0-0.003,0
	c-19.834,5.449-41.871-4.56-52.98-10.823C30.309,155.788,44.565,137.026,63.224,131.902z"/>
<path d="M287.844,458.894c0,5.545,4.496,10.039,10.039,10.039h56.219c5.544,0,10.039-4.495,10.039-10.039
	s-4.496-10.039-10.039-10.039h-56.219C292.339,448.855,287.844,453.349,287.844,458.894z"/>
<path d="M386.228,468.933c12.919,0,12.941-20.078,0-20.078C373.309,448.855,373.288,468.933,386.228,468.933z"/>
<g>
</g>
<g>
</g>
<g>
</g>
<g>
</g>
<g>
</g>
<g>
</g>
<g>
</g>
<g>
</g>
<g>
</g>
<g>
</g>
<g>
</g>
<g>
</g>
<g>
</g>
<g>
</g>
<g>
</g>
</svg>
