<?xml version="1.0" encoding="iso-8859-1"?>
<!-- Generator: Adobe Illustrator 19.0.0, SVG Export Plug-In . SVG Version: 6.00 Build 0)  -->
<svg version="1.1" id="Capa_1" xmlns="http://www.w3.org/2000/svg" xmlns:xlink="http://www.w3.org/1999/xlink" x="0px" y="0px"
	 viewBox="0 0 512.004 512.004" style="enable-background:new 0 0 512.004 512.004;" xml:space="preserve">
<g>
	<g>
		<path d="M511.174,167.827c-0.797-1.836-19.93-45.089-57.082-55.291c-23.893-6.554-48.334,2.448-63.18,10.022
			C379.859,57.671,323.47,8.938,256,8.938c-67.464,0-123.854,48.734-134.907,113.623c-14.847-7.575-39.288-16.576-63.184-10.022
			c-37.15,10.202-56.283,53.454-57.08,55.29c-1.874,4.324-0.49,9.37,3.33,12.13c1.368,0.99,29.011,20.671,59.934,20.671
			c5.726,0,11.569-0.676,17.375-2.27h-0.003c5.581-1.531,10.752-3.812,15.519-6.583c-0.271,2.039-0.426,4.115-0.426,6.227
			c0,25.912,21.081,46.993,46.994,46.993h0.641c3.369,24.149,14.421,46.456,31.968,64.013c12.479,12.473,27.362,21.66,43.6,27.145
			v32.716h-19.514c-0.935-0.133-1.884-0.134-2.824,0h-31.191c-44.518,0-80.735,36.222-80.735,80.745v43.409
			c0,5.545,4.496,10.039,10.039,10.039h320.941c5.544,0,10.039-4.495,10.039-10.039v-43.409c0-44.523-36.222-80.745-80.745-80.745
			h-31.184c-0.939-0.133-1.887-0.133-2.82,0h-19.514v-32.764c39.706-13.497,69.541-48.527,75.544-91.11h0.655
			c25.912,0,46.993-21.081,46.993-46.994c0-2.112-0.154-4.187-0.425-6.226c4.766,2.77,9.936,5.051,15.516,6.581
			c5.808,1.594,11.646,2.27,17.375,2.27c30.92-0.001,58.566-19.681,59.934-20.671C511.665,177.197,513.049,172.151,511.174,167.827z
			 M377.939,151.855c0.026,0.046,0.052,0.093,0.079,0.14c-0.104-0.021-0.209-0.041-0.314-0.062
			C377.782,151.907,377.861,151.881,377.939,151.855z M134.064,151.851c0.081,0.027,0.162,0.053,0.243,0.08
			c-0.107,0.021-0.217,0.041-0.324,0.063C134.01,151.946,134.037,151.898,134.064,151.851z M76.153,178.999c0,0-0.002,0-0.003,0
			c-19.834,5.449-41.871-4.56-52.98-10.823c7.139-12.387,21.394-31.15,40.053-36.273c19.84-5.441,41.869,4.57,52.976,10.832
			C109.063,155.12,94.811,173.88,76.153,178.999z M143.09,224.917c-14.63-0.247-26.454-12.224-26.454-26.911
			s11.824-26.664,26.454-26.911V224.917z M245.971,482.987H105.573v-33.369c0-33.452,27.21-60.667,60.657-60.667h28.006l51.735,61.9
			V482.987z M220.401,388.951h71.208l-35.601,42.601L220.401,388.951z M239.837,368.873v-26.795h32.336v26.795H239.837z
			 M317.778,388.951h27.993c33.451,0,60.666,27.215,60.666,60.667v33.37H266.049v-32.136L317.778,388.951z M348.83,229.167
			C348.832,280.355,307.188,322,256,322c-24.79,0-48.105-9.656-65.643-27.186c-17.533-17.542-27.189-40.855-27.189-65.647v-62.323
			c0-3.109,0.156-6.212,0.46-9.288c2.489,0.157,4.985,0.253,7.481,0.253c32.383,0,62.719-13.018,84.9-36.083
			c22.185,23.065,52.518,36.083,84.901,36.083c2.492,0,4.98-0.095,7.46-0.252c0.305,3.074,0.46,6.177,0.46,9.287V229.167z
			 M355.414,136.653c-0.012,0.001-0.023,0.003-0.035,0.005c-4.726,0.712-9.594,1.073-14.467,1.073
			c-30.215,0-58.283-13.663-77.008-37.486c-1.903-2.421-4.814-3.835-7.893-3.835c-3.08,0-5.989,1.414-7.893,3.835
			c-18.724,23.823-46.793,37.486-77.008,37.486c-4.87,0-9.746-0.361-14.513-1.076c-5.665-0.838-11.244-2.177-16.662-3.996
			C146.481,73.984,196.131,29.017,256,29.017c59.878,0,109.528,44.967,116.066,103.646
			C366.628,134.487,361.052,135.823,355.414,136.653z M368.911,224.917v-53.822c14.629,0.247,26.454,12.225,26.454,26.912
			C395.364,212.693,383.54,224.67,368.911,224.917z M435.85,178.998c-0.001,0-0.002,0-0.002,0
			c-19.837-5.441-33.671-25.294-40.024-36.348c12.461-7.007,34.295-15.865,52.95-10.749c19.806,5.438,33.633,25.239,40.003,36.304
			C477.643,174.473,455.647,184.435,435.85,178.998z"/>
	</g>
</g>
<g>
	<g>
		<path d="M354.103,448.855h-56.219c-5.545,0-10.039,4.495-10.039,10.039c0,5.545,4.496,10.039,10.039,10.039h56.219
			c5.544,0,10.039-4.495,10.039-10.039C364.142,453.35,359.647,448.855,354.103,448.855z"/>
	</g>
</g>
<g>
	<g>
		<path d="M386.228,448.855c-12.919,0-12.941,20.078,0,20.078C399.148,468.933,399.169,448.855,386.228,448.855z"/>
	</g>
</g>
<g>
</g>
<g>
</g>
<g>
</g>
<g>
</g>
<g>
</g>
<g>
</g>
<g>
</g>
<g>
</g>
<g>
</g>
<g>
</g>
<g>
</g>
<g>
</g>
<g>
</g>
<g>
</g>
<g>
</g>
</svg>
