<?xml version="1.0" encoding="iso-8859-1"?>
<!-- Generator: Adobe Illustrator 19.0.0, SVG Export Plug-In . SVG Version: 6.00 Build 0)  -->
<svg version="1.1" id="Capa_1" xmlns="http://www.w3.org/2000/svg" xmlns:xlink="http://www.w3.org/1999/xlink" x="0px" y="0px"
	 viewBox="0 0 512 512" style="enable-background:new 0 0 512 512;" xml:space="preserve">
<g>
	<g>
		<path d="M368.599,352.176h-75.525v-34.357c45.934-15.51,79.099-59.012,79.099-110.117v-1.323
			c24.004-0.595,43.35-20.292,43.35-44.436c0-11.866-4.622-23.031-13.026-31.45c-2.828-2.823-5.973-5.208-9.346-7.146
			c6.119-7.152,9.812-16.407,9.812-26.409c0-13.931-7.105-26.649-18.393-34.053c0.582-2.752,0.875-5.568,0.875-8.432
			c0-22.453-18.266-40.719-40.72-40.719c-8.096,0-15.991,2.46-22.645,6.904c-8.333-5.78-17.336-10.439-26.879-13.857
			C282.626,2.281,269.438,0,255.999,0c-23.47,0-45.755,6.85-64.938,19.845c-6.39-3.973-13.772-6.11-21.449-6.11
			c-22.447,0-40.709,18.266-40.709,40.719c0,2.866,0.291,5.681,0.87,8.429c-11.292,7.404-18.399,20.124-18.399,34.057
			c0,9.606,3.412,18.517,9.102,25.544c-14.25,7.417-24.011,22.315-24.011,39.46c0,11.867,4.622,23.032,13.026,31.45
			c8.142,8.129,18.875,12.707,30.324,12.987v1.322c0,31.042,12.087,60.218,34.032,82.152c12.893,12.892,28.284,22.377,45.077,28.013
			v34.308h-75.525c-51.807,0-93.957,42.149-93.957,93.957v55.828C49.443,507.505,53.937,512,59.482,512h393.035
			c5.544,0,10.039-4.495,10.039-10.039v-55.828C462.556,394.324,420.408,352.176,368.599,352.176z M388.299,144.69
			c4.608,4.616,7.145,10.743,7.145,17.252c0,13.073-10.339,23.776-23.271,24.36v-48.72
			C378.266,137.854,383.96,140.358,388.299,144.69z M329.717,40.282c3.939-4.172,9.268-6.47,15.007-6.47
			c11.383,0,20.643,9.259,20.643,20.641c0,3.166-0.71,6.22-2.109,9.075c-1.266,2.583-1.361,5.585-0.266,8.244
			c1.097,2.658,3.282,4.72,6,5.66c8.309,2.874,13.892,10.712,13.892,19.505c0,10.644-8.241,19.615-18.801,20.54h-1.95
			c-0.282,0-0.559,0.02-0.835,0.043c-10.929-0.5-19.685-9.542-19.685-20.583c0-3.188,0.706-6.245,2.098-9.086
			c1.266-2.583,1.361-5.585,0.266-8.244c-1.097-2.658-3.282-4.72-6-5.66c-8.309-2.874-13.892-10.709-13.892-19.495
			C324.084,49.165,326.086,44.131,329.717,40.282z M139.816,186.303c-6.093-0.272-11.786-2.776-16.126-7.109
			c-4.608-4.614-7.145-10.741-7.145-17.251c0-13.072,10.34-23.776,23.271-24.36V186.303z M150.603,117.516
			c-0.035-0.003-0.071-0.005-0.106-0.008c-10.678-0.812-19.042-9.847-19.042-20.569c-0.001-8.793,5.582-16.631,13.891-19.505
			c2.719-0.941,4.903-3.002,6-5.661c1.096-2.659,1-5.662-0.267-8.245c-1.391-2.84-2.097-5.893-2.097-9.074
			c0-11.381,9.255-20.641,20.631-20.641c5.362,0,10.445,2.049,14.314,5.771c0.002,0.001,0.004,0.004,0.006,0.005
			c4.076,3.913,6.321,9.193,6.321,14.865c0,8.786-5.583,16.621-13.892,19.495c-2.719,0.941-4.903,3.002-6,5.661
			c-1.097,2.659-1,5.662,0.267,8.245c1.391,2.839,2.097,5.896,2.097,9.084c0,11.375-9.255,20.631-20.631,20.631
			C151.629,117.569,151.127,117.551,150.603,117.516z M188.043,275.654c-18.152-18.143-28.149-42.275-28.149-67.952v-11.334V136.89
			c18.727-3.65,32.909-20.172,32.909-39.951c0-2.87-0.292-5.688-0.871-8.438c11.292-7.403,18.4-20.119,18.4-34.048
			c0-7.091-1.787-13.87-5.141-19.856c15.19-9.515,32.565-14.519,50.809-14.519c11.126,0,22.04,1.886,32.435,5.606
			c7.093,2.54,13.826,5.918,20.127,10.049c-2.972,5.73-4.554,12.123-4.554,18.719c0,13.929,7.106,26.645,18.399,34.048
			c-0.579,2.751-0.87,5.569-0.87,8.438c0,18.908,13.004,34.88,30.558,39.417v60.011v11.334c0,52.993-43.107,96.105-96.095,96.105
			C230.331,303.807,206.198,293.81,188.043,275.654z M272.996,323.885v28.291h-33.993v-28.291H272.996z M245.96,491.922H69.521
			v-45.789c0-40.737,33.141-73.879,73.879-73.879h45.25c4.383,29.521,27.785,52.92,57.311,57.302V491.922z M209.046,372.254h93.897
			c-4.629,21.668-23.915,37.968-46.943,37.968C232.967,410.222,213.676,393.921,209.046,372.254z M442.478,491.922H266.039v-62.367
			c29.521-4.382,52.919-27.781,57.302-57.302h45.26c40.735,0.001,73.878,33.143,73.878,73.88V491.922z"/>
	</g>
</g>
<g>
	<g>
		<path d="M375.778,451.072h-56.22c-5.545,0-10.039,4.495-10.039,10.039c0,5.545,4.496,10.039,10.039,10.039h56.22
			c5.544,0,10.039-4.495,10.039-10.039C385.818,455.567,381.322,451.072,375.778,451.072z"/>
	</g>
</g>
<g>
	<g>
		<path d="M407.903,451.072c-12.919,0-12.94,20.078,0,20.078C420.822,471.15,420.843,451.072,407.903,451.072z"/>
	</g>
</g>
<g>
</g>
<g>
</g>
<g>
</g>
<g>
</g>
<g>
</g>
<g>
</g>
<g>
</g>
<g>
</g>
<g>
</g>
<g>
</g>
<g>
</g>
<g>
</g>
<g>
</g>
<g>
</g>
<g>
</g>
</svg>
