<?xml version="1.0" encoding="iso-8859-1"?>
<!-- Generator: Adobe Illustrator 19.0.0, SVG Export Plug-In . SVG Version: 6.00 Build 0)  -->
<svg version="1.1" id="Capa_1" xmlns="http://www.w3.org/2000/svg" xmlns:xlink="http://www.w3.org/1999/xlink" x="0px" y="0px"
	 viewBox="0 0 512 512" style="enable-background:new 0 0 512 512;" xml:space="preserve">
<g>
	<path style="fill:#CCCCCC;" d="M362.127,129.616c-17.954-0.064-32.56-14.724-32.56-32.678c0-4.305,0.816-8.462,2.428-12.389
		c-12.023-5.08-19.957-16.911-19.957-30.097c0-8.374,3.167-16.343,8.92-22.441c6.239-6.608,14.679-10.247,23.768-10.247
		c18.024,0,32.689,14.663,32.689,32.688c0,4.288-0.819,8.443-2.439,12.38c12.023,5.08,19.956,16.915,19.956,30.106
		c0,16.982-13.25,31.294-30.166,32.581l-0.152,0.006h-0.473v0.007L362.127,129.616z"/>
	<path style="fill:#CCCCCC;" d="M152.094,129.616c-0.757,0-1.557-0.028-2.377-0.085l-1.869-0.128v-0.061
		c-16.084-2.096-28.441-16.004-28.441-32.403c0-13.192,7.934-25.026,19.957-30.106c-1.612-3.927-2.428-8.081-2.428-12.38
		c0-18.024,14.659-32.688,32.678-32.688c8.491,0,16.541,3.244,22.665,9.135c6.463,6.205,10.022,14.571,10.022,23.553
		c0,13.186-7.934,25.016-19.957,30.097c1.612,3.926,2.428,8.085,2.428,12.389C184.771,114.957,170.112,129.616,152.094,129.616z"/>
</g>
<g>
	<path style="fill:#E0B39B;" d="M140.93,198.375c-9.725,0-18.874-3.788-25.764-10.667c-6.881-6.892-10.669-16.042-10.669-25.767
		c0-20.088,16.344-36.432,36.432-36.432h8.927l0.09,0.01h1.916v72.855H140.93V198.375z"/>
	<path style="fill:#E0B39B;" d="M360.126,198.375v-72.774h2.128c0.746,0,1.487-0.028,2.204-0.084l0.156-0.006h6.445
		c9.725,0,18.875,3.788,25.764,10.667c6.881,6.893,10.669,16.043,10.669,25.767c0,20.088-16.343,36.432-36.432,36.432h-10.933
		V198.375z"/>
</g>
<path style="fill:#FBC8AD;" d="M256,315.854c-28.885,0-56.044-11.251-76.473-31.68c-20.429-20.418-31.68-47.577-31.68-76.473
	v-82.325l2.146,0.148c0.728,0.05,1.435,0.075,2.1,0.075c15.804,0,28.662-12.858,28.662-28.662c0-4.425-0.982-8.671-2.917-12.619
	l-1-2.039l2.146-0.742c11.544-3.993,19.299-14.877,19.299-27.085c0-7.88-3.121-15.215-8.789-20.659l-1.674-1.607l1.831-1.425
	C208.76,15.892,231.703,8.031,256,8.031c12.514,0,24.792,2.123,36.497,6.312c11.281,4.041,21.773,9.923,31.182,17.482l1.695,1.361
	l-1.491,1.581c-5.046,5.349-7.826,12.34-7.826,19.685c0,12.209,7.756,23.093,19.298,27.085l2.146,0.742l-0.999,2.039
	c-1.936,3.95-2.916,8.196-2.916,12.619c0,15.749,12.811,28.606,28.558,28.662l2.001,0.007V207.7
	C364.142,267.336,315.628,315.854,256,315.854z"/>
<rect x="226.956" y="311.838" style="fill:#E0B39B;" width="58.087" height="52.385"/>
<path style="fill:#EFEFEF;" d="M256,422.27c-33.119,0-60.065-26.94-60.065-60.055v-2.008h120.119v2.008
	C316.054,395.329,289.114,422.27,256,422.27z"/>
<g>
	<path style="fill:#917464;" d="M57.474,503.969v-57.836c0-47.38,38.547-85.926,85.926-85.926h56.551v2.008
		c0,30.9,25.143,56.039,56.049,56.039h2.008v85.715H57.474z"/>
	<path style="fill:#917464;" d="M253.992,503.969v-85.715H256c30.9,0,56.039-25.139,56.039-56.039v-2.008h56.561
		c47.379,0,85.926,38.547,85.926,85.926v57.836H253.992z"/>
</g>
<path d="M59.482,512h393.035c5.544,0,10.039-4.495,10.039-10.039v-55.828c0-51.808-42.149-93.957-93.957-93.957h-75.525v-34.357
	c45.934-15.51,79.099-59.012,79.099-110.117v-1.323c24.004-0.595,43.35-20.292,43.35-44.436c0-11.866-4.622-23.031-13.026-31.45
	c-2.828-2.823-5.973-5.208-9.346-7.146c6.119-7.152,9.812-16.407,9.812-26.409c0-13.931-7.105-26.649-18.393-34.053
	c0.582-2.752,0.875-5.568,0.875-8.432c0-22.453-18.266-40.719-40.72-40.719c-8.096,0-15.991,2.46-22.645,6.904
	c-8.333-5.78-17.336-10.439-26.879-13.857C282.627,2.281,269.438,0,256,0c-23.47,0-45.755,6.85-64.938,19.845
	c-6.39-3.973-13.772-6.11-21.449-6.11c-22.447,0-40.709,18.266-40.709,40.719c0,2.866,0.291,5.681,0.87,8.429
	c-11.292,7.404-18.399,20.124-18.399,34.057c0,9.606,3.412,18.517,9.102,25.544c-14.25,7.417-24.011,22.315-24.011,39.46
	c0,11.867,4.622,23.032,13.026,31.45c8.142,8.129,18.875,12.707,30.324,12.987v1.322c0,31.042,12.087,60.218,34.032,82.152
	c12.893,12.892,28.283,22.377,45.077,28.013v34.308h-75.525c-51.807,0-93.957,42.149-93.957,93.957v55.828
	C49.443,507.505,53.937,512,59.482,512z M302.943,372.254c-4.629,21.668-23.915,37.968-46.943,37.968
	c-23.033,0-42.323-16.302-46.953-37.968H302.943z M442.478,446.133v45.789H266.039v-62.367
	c29.521-4.382,52.919-27.781,57.302-57.302h45.26C409.335,372.254,442.478,405.397,442.478,446.133z M372.173,186.303v-48.72
	c6.093,0.272,11.787,2.776,16.126,7.108c4.608,4.616,7.145,10.743,7.145,17.252C395.444,175.016,385.105,185.718,372.173,186.303z
	 M365.367,54.453c0,3.166-0.71,6.22-2.109,9.075c-1.266,2.583-1.361,5.585-0.266,8.244c1.097,2.658,3.282,4.72,6,5.66
	c8.309,2.874,13.892,10.712,13.892,19.505c0,10.644-8.241,19.615-18.801,20.54h-1.95c-0.282,0-0.559,0.02-0.835,0.043
	c-10.929-0.5-19.685-9.542-19.685-20.583c0-3.188,0.706-6.245,2.098-9.085c1.266-2.583,1.361-5.585,0.266-8.244
	c-1.097-2.658-3.282-4.72-6-5.66c-8.309-2.874-13.892-10.709-13.892-19.495c0-5.288,2.002-10.321,5.633-14.17
	c3.939-4.172,9.268-6.47,15.007-6.47C356.108,33.812,365.367,43.071,365.367,54.453z M145.345,77.433
	c2.719-0.941,4.903-3.002,6-5.661c1.096-2.659,1-5.662-0.267-8.245c-1.391-2.84-2.097-5.893-2.097-9.074
	c0-11.381,9.255-20.641,20.631-20.641c5.362,0,10.445,2.049,14.314,5.771c0.002,0.001,0.004,0.004,0.006,0.005
	c4.076,3.913,6.321,9.193,6.321,14.865c0,8.786-5.583,16.621-13.892,19.495c-2.719,0.941-4.903,3.002-6,5.661
	c-1.097,2.659-1,5.662,0.267,8.245c1.391,2.839,2.097,5.896,2.097,9.084c0,11.375-9.255,20.631-20.631,20.631
	c-0.465,0-0.967-0.018-1.491-0.053c-0.035-0.003-0.071-0.005-0.106-0.008c-10.678-0.812-19.042-9.847-19.042-20.569
	C131.453,88.145,137.036,80.308,145.345,77.433z M116.545,161.943c0-13.072,10.34-23.776,23.271-24.36v48.72
	c-6.093-0.272-11.786-2.776-16.126-7.109C119.082,174.58,116.545,168.453,116.545,161.943z M159.894,207.701v-11.334V136.89
	c18.727-3.65,32.909-20.172,32.909-39.951c0-2.87-0.292-5.688-0.871-8.438c11.292-7.403,18.4-20.119,18.4-34.048
	c0-7.091-1.787-13.87-5.141-19.856c15.19-9.515,32.565-14.519,50.809-14.519c11.126,0,22.04,1.886,32.435,5.606
	c7.093,2.54,13.826,5.918,20.127,10.049c-2.972,5.73-4.554,12.123-4.554,18.719c0,13.929,7.106,26.645,18.399,34.048
	c-0.579,2.751-0.87,5.569-0.87,8.438c0,18.908,13.004,34.88,30.558,39.417v60.011v11.334c0,52.993-43.107,96.105-96.095,96.105
	c-25.667,0-49.801-9.997-67.955-28.153C169.891,257.511,159.894,233.379,159.894,207.701z M239.003,323.885h33.993v28.29h-33.993
	L239.003,323.885L239.003,323.885z M69.521,446.133c0-40.737,33.141-73.879,73.879-73.879h45.25
	c4.383,29.521,27.785,52.92,57.311,57.302v62.366H69.521V446.133z"/>
<path d="M309.52,461.111c0,5.545,4.496,10.039,10.039,10.039h56.22c5.544,0,10.039-4.495,10.039-10.039s-4.496-10.039-10.039-10.039
	h-56.22C314.014,451.072,309.52,455.567,309.52,461.111z"/>
<path d="M407.903,471.15c12.919,0,12.941-20.078,0-20.078C394.983,451.072,394.962,471.15,407.903,471.15z"/>
<g>
</g>
<g>
</g>
<g>
</g>
<g>
</g>
<g>
</g>
<g>
</g>
<g>
</g>
<g>
</g>
<g>
</g>
<g>
</g>
<g>
</g>
<g>
</g>
<g>
</g>
<g>
</g>
<g>
</g>
</svg>
