<?xml version="1.0" encoding="iso-8859-1"?>
<!-- Generator: Adobe Illustrator 19.0.0, SVG Export Plug-In . SVG Version: 6.00 Build 0)  -->
<svg version="1.1" id="Capa_1" xmlns="http://www.w3.org/2000/svg" xmlns:xlink="http://www.w3.org/1999/xlink" x="0px" y="0px"
	 viewBox="0 0 512 512" style="enable-background:new 0 0 512 512;" xml:space="preserve">
<path style="fill:#E0B39B;" d="M149.614,225.531c-17.548,0-31.824-14.281-31.824-31.834v-3.082c0-15.589,11.6-29.118,26.982-31.47
	c1.615-0.242,3.242-0.364,4.841-0.364h11.686v66.751H149.614z"/>
<path style="fill:#FBC640;" d="M117.79,193.697h4.016c0,15.339,12.475,27.819,27.809,27.819H161.3v12.338
	c0,25.291,9.849,49.074,27.733,66.969c17.893,17.883,41.676,27.732,66.968,27.732v4.016h-22.628v44.072h-72.513
	c-14.058,0-27.916,3.615-40.076,10.454l-2.992,1.683V193.697H117.79z"/>
<path style="fill:#FBDF97;" d="M117.79,146.241c0-76.21,62-138.21,138.21-138.21s138.21,62,138.21,138.21v16.565h-2.008
	c-8.443,0-16.928-0.688-25.222-2.044c-4.906-0.795-9.887-1.862-14.801-3.173c-40.979-10.912-75.832-38.38-96.181-75.65
	c-12.828,23.482-31.541,43.31-54.314,57.504c-13.028,8.12-27.118,14.226-41.878,18.147c-4.895,1.306-9.876,2.374-14.801,3.173
	l-0.16,0.02l-27.058,2.194v-16.735H117.79z"/>
<path style="fill:#FFABCD;" d="M74.933,503.969v-45.417c0-31.022,16.815-59.744,43.881-74.957
	c12.759-7.176,27.298-10.969,42.044-10.969h190.283c14.754,0,29.292,3.797,42.045,10.981c27.065,15.2,43.879,43.919,43.879,74.945
	v45.417H74.933z"/>
<path style="fill:#E0B39B;" d="M350.69,225.531V158.78h11.686c1.599,0,3.226,0.122,4.835,0.363
	c15.394,2.352,26.999,15.881,26.999,31.471v3.082c0,17.554-14.281,31.834-31.834,31.834H350.69z"/>
<path style="fill:#FBC640;" d="M391.216,387.105c-12.152-6.846-26.011-10.464-40.075-10.464h-72.513v-44.072H256v-4.016
	c52.212,0,94.69-42.482,94.69-94.7v-12.338h11.686c15.339,0,27.819-12.48,27.819-27.819h4.016v195.094L391.216,387.105z"/>
<path style="fill:#FBC8AD;" d="M256,332.569c-26.363,0-51.155-10.267-69.807-28.908c-18.642-18.654-28.909-43.445-28.909-69.808
	v-79.75l1.492-0.397c14.374-3.818,28.097-9.764,40.784-17.673c23.239-14.484,42.138-34.99,54.653-59.3L256,73.266l1.785,3.469
	c19.537,37.972,54.32,66.028,95.429,76.973l1.491,0.398v79.749C354.706,288.285,310.427,332.569,256,332.569z"/>
<rect x="229.356" y="328.553" style="fill:#E0B39B;" width="53.288" height="48.088"/>
<path d="M402.241,160.798v-14.557C402.241,65.603,336.638,0,256,0S109.759,65.603,109.759,146.241v14.557v218.898
	c-26.578,17.251-42.857,46.937-42.857,78.855v43.41c0,5.545,4.495,10.039,10.039,10.039h358.119c5.545,0,10.039-4.495,10.039-10.039
	v-43.41c0-31.922-16.281-61.605-42.857-78.847L402.241,160.798L402.241,160.798z M351.142,364.594h-60.466v-29.78
	c41.885-14.428,72.061-54.234,72.061-100.96v-0.3c7.063-0.063,13.688-1.975,19.426-5.271v141.58
	C372.246,366.4,361.745,364.594,351.142,364.594z M241.403,364.594v-23.994h29.194v23.994H241.403z M160.858,364.594
	c-10.601,0-21.101,1.805-31.021,5.266V228.286c5.734,3.294,12.356,5.204,19.416,5.268v0.3c0,28.507,11.101,55.315,31.263,75.488
	c11.692,11.685,25.617,20.319,40.808,25.52v29.732h-60.466V364.594z M382.163,193.697c0,10.79-8.681,19.591-19.426,19.784v-42.65
	c0.887,0.016,1.787,0.091,2.66,0.223c9.558,1.461,16.766,9.87,16.766,19.561V193.697z M342.659,223.523v10.33
	c0,47.79-38.875,86.669-86.659,86.669c-23.146,0-44.913-9.014-61.286-25.378c-16.368-16.378-25.382-38.145-25.382-61.29v-10.33
	V163.15c12.824-4.078,25.11-9.729,36.602-16.893c20.059-12.503,37.124-29.163,50.065-48.757
	c20.51,31.065,51.136,54.354,86.661,65.668V223.523z M129.837,190.615c0-9.691,7.204-18.101,16.726-19.556
	c0.899-0.135,1.801-0.211,2.69-0.227v42.65c-10.739-0.193-19.416-8.993-19.416-19.784V190.615z M129.837,146.241
	c0-69.567,56.597-126.163,126.163-126.163s126.163,56.596,126.163,126.163v4.168c-4.445-0.309-8.876-0.823-13.253-1.539
	c-4.514-0.732-9.098-1.715-13.63-2.923c-38.92-10.363-71.853-36.929-90.353-72.887c-1.721-3.344-5.165-5.445-8.926-5.446H256
	c-3.76,0-7.204,2.101-8.926,5.443c-11.853,23.023-29.752,42.443-51.761,56.16c-12.01,7.486-24.997,13.114-38.609,16.729
	c-4.383,1.17-8.833,2.131-13.238,2.859l-13.629,1.105L129.837,146.241L129.837,146.241z M425.02,458.551v33.37H86.98v-33.37
	c0-26.674,14.459-51.372,37.739-64.456c10.96-6.164,23.457-9.423,36.139-9.423h190.283c12.687,0,25.181,3.261,36.133,9.43
	c0.003,0.002,0.007,0.004,0.011,0.006C410.562,407.181,425.02,431.874,425.02,458.551z"/>
<path d="M256,413.01c-12.919,0-12.941,20.078,0,20.078C268.919,433.089,268.941,413.01,256,413.01z"/>
<path d="M256,450.845c-12.919,0-12.941,20.078,0,20.078C268.919,470.924,268.941,450.845,256,450.845z"/>
<path d="M364.142,458.893h-56.22c-5.545,0-10.039,4.495-10.039,10.039s4.495,10.039,10.039,10.039h56.22
	c5.545,0,10.039-4.495,10.039-10.039S369.687,458.893,364.142,458.893z"/>
<path d="M396.268,478.971c12.919,0,12.941-20.078,0-20.078C383.349,458.893,383.327,478.971,396.268,478.971z"/>
<g>
</g>
<g>
</g>
<g>
</g>
<g>
</g>
<g>
</g>
<g>
</g>
<g>
</g>
<g>
</g>
<g>
</g>
<g>
</g>
<g>
</g>
<g>
</g>
<g>
</g>
<g>
</g>
<g>
</g>
</svg>
