<?xml version="1.0" encoding="iso-8859-1"?>
<!-- Generator: Adobe Illustrator 19.0.0, SVG Export Plug-In . SVG Version: 6.00 Build 0)  -->
<svg version="1.1" id="Capa_1" xmlns="http://www.w3.org/2000/svg" xmlns:xlink="http://www.w3.org/1999/xlink" x="0px" y="0px"
	 viewBox="0 0 512 512" style="enable-background:new 0 0 512 512;" xml:space="preserve">
<g>
	<g>
		<path d="M402.241,379.704V160.798v-14.557C402.241,65.603,336.638,0,256,0S109.759,65.603,109.759,146.241v14.557v218.898
			c-26.578,17.251-42.857,46.937-42.857,78.855v43.41c0,5.545,4.495,10.039,10.039,10.039h358.119
			c5.545,0,10.039-4.495,10.039-10.039v-43.41C445.099,426.63,428.818,396.947,402.241,379.704z M129.837,146.241
			c0-69.567,56.597-126.163,126.163-126.163s126.163,56.596,126.163,126.163v4.168c-4.445-0.309-8.876-0.823-13.253-1.539
			c-4.514-0.732-9.098-1.715-13.63-2.923c-38.92-10.363-71.853-36.929-90.353-72.887c-1.721-3.344-5.165-5.445-8.926-5.446H256
			c-3.76,0-7.204,2.101-8.926,5.443c-11.853,23.023-29.752,42.443-51.761,56.16c-12.01,7.486-24.997,13.114-38.609,16.729
			c-4.383,1.17-8.833,2.131-13.238,2.859l-13.629,1.105V146.241z M256,320.522c-23.146,0-44.913-9.014-61.286-25.378
			c-16.368-16.378-25.382-38.145-25.382-61.29v-10.33V163.15c12.824-4.078,25.11-9.729,36.602-16.893
			c20.059-12.503,37.124-29.163,50.065-48.757c20.51,31.065,51.136,54.354,86.661,65.667v60.356v10.33
			C342.659,281.643,303.784,320.522,256,320.522z M270.597,340.601v23.994h-29.194v-23.994H270.597z M290.675,334.814
			c41.885-14.428,72.061-54.234,72.061-100.96v-0.3c7.063-0.063,13.688-1.975,19.426-5.271v141.58
			c-9.917-3.463-20.418-5.269-31.021-5.269h-60.466V334.814z M362.737,213.481v-42.65c0.887,0.016,1.787,0.091,2.66,0.223
			c9.558,1.461,16.766,9.87,16.766,19.561v3.081C382.163,204.487,373.482,213.287,362.737,213.481z M129.837,190.615
			c0-9.691,7.204-18.101,16.726-19.556c0.898-0.135,1.801-0.211,2.69-0.227v42.65c-10.739-0.193-19.416-8.993-19.416-19.784V190.615
			z M129.837,228.286c5.734,3.294,12.356,5.204,19.416,5.268v0.3c0,28.507,11.101,55.315,31.263,75.488
			c11.692,11.685,25.617,20.319,40.808,25.52v29.732h-60.466v0.001c-10.601,0-21.101,1.805-31.021,5.266V228.286z M425.02,491.922
			H86.98v-33.37c0-26.674,14.459-51.372,37.739-64.456c10.96-6.164,23.457-9.423,36.139-9.423h190.283
			c12.687,0,25.181,3.261,36.133,9.43c0.003,0.002,0.007,0.004,0.011,0.006c23.276,13.072,37.734,37.766,37.734,64.443V491.922z"/>
	</g>
</g>
<g>
	<g>
		<path d="M256,413.01c-12.919,0-12.941,20.078,0,20.078C268.919,433.089,268.941,413.01,256,413.01z"/>
	</g>
</g>
<g>
	<g>
		<path d="M256,450.845c-12.919,0-12.941,20.078,0,20.078C268.919,470.924,268.941,450.845,256,450.845z"/>
	</g>
</g>
<g>
	<g>
		<path d="M364.142,458.893h-56.22c-5.545,0-10.039,4.495-10.039,10.039c0,5.545,4.495,10.039,10.039,10.039h56.22
			c5.545,0,10.039-4.495,10.039-10.039C374.182,463.387,369.687,458.893,364.142,458.893z"/>
	</g>
</g>
<g>
	<g>
		<path d="M396.268,458.893c-12.919,0-12.941,20.078,0,20.078C409.187,478.971,409.208,458.893,396.268,458.893z"/>
	</g>
</g>
<g>
</g>
<g>
</g>
<g>
</g>
<g>
</g>
<g>
</g>
<g>
</g>
<g>
</g>
<g>
</g>
<g>
</g>
<g>
</g>
<g>
</g>
<g>
</g>
<g>
</g>
<g>
</g>
<g>
</g>
</svg>
