<?xml version="1.0" encoding="iso-8859-1"?>
<!-- Generator: Adobe Illustrator 19.0.0, SVG Export Plug-In . SVG Version: 6.00 Build 0)  -->
<svg version="1.1" id="Capa_1" xmlns="http://www.w3.org/2000/svg" xmlns:xlink="http://www.w3.org/1999/xlink" x="0px" y="0px"
	 viewBox="0 0 512 512" style="enable-background:new 0 0 512 512;" xml:space="preserve">
<path style="fill:#14953A;" d="M256.461,503.969l-2.782-4.806l76.44-132.072h20.614c51.886,0,94.097,42.212,94.097,94.097v42.781
	H256.461z"/>
<path style="fill:#E0B39B;" d="M354.895,213.445v-69.477h10.49c9.269,0,17.993,3.612,24.566,10.171
	c6.561,6.562,10.174,15.287,10.174,24.568c0,19.155-15.584,34.739-34.74,34.739H354.895z"/>
<path style="fill:#917464;" d="M340.267,146.209c-43.339,0-84.673-18.634-113.401-51.124
	c-17.124-19.351-29.053-42.871-34.501-68.019l-0.309-1.426l1.261-0.734C212.273,13.867,233.948,8.031,256,8.031
	c68.78,0,124.735,55.956,124.735,124.735v7.977l-1.492,0.397c-7.258,1.931-14.701,3.321-22.121,4.132
	C351.526,145.894,345.854,146.209,340.267,146.209z"/>
<path style="fill:#FBC8AD;" d="M256,325.122c-27.489,0-53.331-10.702-72.764-30.136c-19.44-19.44-30.147-45.285-30.147-72.775
	v-79.517l1.619-0.319c29.636-5.843,55.864-23.952,71.959-49.684l1.426-2.28l1.78,2.014c27.968,31.628,68.204,49.767,110.393,49.767
	c5.439,0,10.962-0.307,16.414-0.913l2.23-0.248v81.178C358.911,278.957,312.744,325.122,256,325.122z"/>
<polygon style="fill:#EFEFEF;" points="253.16,412.736 298.795,367.091 334.759,367.091 288.112,447.688 "/>
<g>
	<polygon style="fill:#094A00;" points="207.515,367.091 304.472,367.091 256,415.575 	"/>
	<polygon style="fill:#094A00;" points="221.805,444.08 256,409.896 290.195,444.091 256,503.172 	"/>
</g>
<rect x="228.291" y="321.104" style="fill:#E0B39B;" width="55.416" height="50"/>
<path style="fill:#14953A;" d="M67.169,503.969v-42.781c0-51.886,42.212-94.097,94.097-94.097h20.614l44.174,76.313l32.266,55.76
	l-2.781,4.805H67.169z"/>
<polygon style="fill:#EFEFEF;" points="177.239,367.091 213.194,367.091 258.84,412.736 223.887,447.677 "/>
<path style="fill:#917464;" d="M131.264,148.479v-15.712c0-44.24,23.777-85.568,62.052-107.859l2.387-1.39l0.585,2.701
	c5.302,24.477,16.915,47.372,33.583,66.209l0.995,1.123l-0.795,1.272c-16.681,26.669-43.867,45.439-74.587,51.494
	c-3.963,0.788-8.023,1.361-12.061,1.705c-3.235,0.304-6.656,0.459-10.152,0.459L131.264,148.479L131.264,148.479z"/>
<path style="fill:#E0B39B;" d="M146.614,213.445c-9.269,0-17.993-3.612-24.565-10.172c-6.562-6.562-10.174-15.286-10.174-24.567
	c0-17.901,13.407-32.759,31.187-34.563c1.164-0.116,2.357-0.176,3.552-0.176h10.491v69.477H146.614z"/>
<path d="M69.177,512h185.202h3.24h185.202c5.544,0,10.039-4.495,10.039-10.039v-40.773c0-56.314-45.815-102.128-102.128-102.128
	H291.74v-31.814c43.692-14.908,75.201-56.36,75.201-105.034v-0.774c22.863-0.824,41.214-19.67,41.214-42.731
	c0-11.427-4.448-22.169-12.531-30.252c-2.278-2.273-4.772-4.248-7.426-5.927c0.368-1.047,0.568-2.168,0.568-3.326v-6.434
	C388.766,59.559,329.207,0,256,0c-23.466,0-46.534,6.21-66.714,17.96c-0.004,0.002-0.007,0.004-0.011,0.006
	c-40.736,23.724-66.042,67.713-66.042,114.8v10.073c-11.759,7.649-19.39,20.89-19.39,35.866c0,11.427,4.448,22.168,12.532,30.251
	c7.718,7.704,17.854,12.095,28.682,12.481v0.773c0,29.636,11.542,57.498,32.499,78.454c12.222,12.222,26.798,21.233,42.703,26.626
	v31.767h-7.891c-0.003,0-0.007,0-0.01,0h-51.091c-56.314,0-102.128,45.815-102.128,102.128v40.774
	C59.138,507.505,63.632,512,69.177,512z M208.204,379.138l33.597,33.597l-15.345,15.34l-28.324-48.936h10.071V379.138z
	 M313.867,379.138l-28.326,48.941l-15.344-15.345l33.589-33.597h10.08V379.138z M275.393,379.138l-19.395,19.4l-19.399-19.4H275.393
	z M255.998,426.933l19.133,19.133l-19.131,33.054l-19.136-33.061L255.998,426.933z M432.783,461.188v30.734H271.79l65.276-112.784
	h13.666C395.975,379.138,432.783,415.945,432.783,461.188z M366.942,201.346v-45.278c5.471,0.369,10.57,2.678,14.492,6.591
	c4.285,4.285,6.644,9.984,6.644,16.048C388.077,190.696,378.731,200.542,366.942,201.346z M256,20.078
	c61.637,0,111.873,49.736,112.678,111.184c-4.267,0.883-8.57,1.565-12.866,2.034c-0.006,0.001-0.012,0.001-0.018,0.002
	c-5.158,0.573-10.383,0.863-15.527,0.863c-39.889,0-77.933-17.151-104.38-47.059c-14.095-15.928-24.366-34.923-29.963-55.31
	C221.407,24.111,238.572,20.078,256,20.078z M143.311,132.767c0-35.476,16.936-68.87,44.924-90.016
	c5.898,18.715,15.27,36.267,27.581,51.648c-15.074,20.68-37.549,35.146-62.679,40.101c-0.013,0.003-0.027,0.005-0.041,0.008
	c-0.012,0.002-0.024,0.004-0.036,0.007c-3.186,0.631-6.439,1.107-9.75,1.423L143.311,132.767L143.311,132.767z M123.922,178.706
	c0-11.691,8.745-21.395,20.345-22.576c0.263-0.026,0.526-0.048,0.79-0.065v45.281c-5.471-0.368-10.57-2.678-14.491-6.592
	C126.282,190.469,123.922,184.77,123.922,178.706z M165.136,222.211v-10.774v-59.142c25.456-6.88,48.163-21.985,64.432-42.785
	c29.598,28.566,69.278,44.732,110.7,44.732c2.189,0,4.391-0.061,6.596-0.153v57.349v10.774c0,50.103-40.762,90.864-90.864,90.864
	c-24.272,0-47.088-9.449-64.246-26.607C174.588,269.304,165.136,246.484,165.136,222.211z M240.336,333.153h31.325v25.906h-31.325
	L240.336,333.153L240.336,333.153z M79.216,461.188c0-45.243,36.808-82.05,82.049-82.05h13.666l65.278,112.784H79.216V461.188z"/>
<path d="M307.922,468.932c0,5.545,4.496,10.039,10.039,10.039h56.22c5.544,0,10.039-4.495,10.039-10.039
	s-4.496-10.039-10.039-10.039h-56.22C312.417,458.893,307.922,463.387,307.922,468.932z"/>
<path d="M406.307,478.971c12.919,0,12.941-20.078,0-20.078C393.387,458.893,393.366,478.971,406.307,478.971z"/>
<g>
</g>
<g>
</g>
<g>
</g>
<g>
</g>
<g>
</g>
<g>
</g>
<g>
</g>
<g>
</g>
<g>
</g>
<g>
</g>
<g>
</g>
<g>
</g>
<g>
</g>
<g>
</g>
<g>
</g>
</svg>
