<?xml version="1.0" encoding="iso-8859-1"?>
<!-- Generator: Adobe Illustrator 19.0.0, SVG Export Plug-In . SVG Version: 6.00 Build 0)  -->
<svg version="1.1" id="Capa_1" xmlns="http://www.w3.org/2000/svg" xmlns:xlink="http://www.w3.org/1999/xlink" x="0px" y="0px"
	 viewBox="0 0 512 512" style="enable-background:new 0 0 512 512;" xml:space="preserve">
<g>
	<g>
		<path d="M350.733,359.06H291.74v-31.814c43.692-14.908,75.201-56.36,75.201-105.034v-0.774
			c22.863-0.824,41.214-19.67,41.214-42.731c0-11.427-4.448-22.169-12.531-30.252c-2.278-2.273-4.772-4.248-7.426-5.927
			c0.368-1.047,0.568-2.168,0.568-3.326v-6.434C388.766,59.559,329.207,0,255.999,0c-23.466,0-46.534,6.21-66.714,17.96
			c-0.004,0.002-0.007,0.004-0.011,0.006c-40.736,23.724-66.042,67.713-66.042,114.8v10.073c-11.759,7.649-19.39,20.89-19.39,35.866
			c0,11.427,4.448,22.168,12.532,30.251c7.718,7.704,17.854,12.095,28.682,12.481v0.773c0,29.636,11.542,57.498,32.499,78.454
			c12.222,12.222,26.798,21.233,42.703,26.626v31.767h-7.891c-0.003,0-0.007,0-0.01,0h-51.091
			c-56.314,0-102.128,45.815-102.128,102.128v40.774C59.137,507.505,63.632,512,69.177,512h185.202h3.24h185.203
			c5.544,0,10.039-4.495,10.039-10.039v-40.773C452.861,404.874,407.046,359.06,350.733,359.06z M303.786,379.137h10.08v0.001
			l-28.326,48.941l-15.344-15.345L303.786,379.137z M275.393,379.138l-19.395,19.4l-19.399-19.4H275.393z M240.336,359.06v-25.906h0
			h31.325v25.906H240.336z M388.077,178.706c0,11.99-9.346,21.836-21.136,22.639v-45.278c5.471,0.369,10.57,2.678,14.492,6.591
			C385.718,166.943,388.077,172.642,388.077,178.706z M255.999,20.078c61.637,0,111.873,49.736,112.678,111.184
			c-4.267,0.883-8.57,1.565-12.866,2.034c-0.006,0.001-0.012,0.001-0.018,0.002c-5.158,0.573-10.383,0.863-15.527,0.863
			c-39.889,0-77.933-17.151-104.38-47.059c-14.095-15.928-24.366-34.923-29.963-55.31C221.407,24.111,238.572,20.078,255.999,20.078
			z M145.057,201.346c-5.471-0.368-10.57-2.678-14.491-6.592c-4.285-4.285-6.645-9.984-6.645-16.048
			c0-11.691,8.745-21.395,20.346-22.576c0.263-0.026,0.526-0.048,0.79-0.065V201.346z M153.097,134.507
			c-0.012,0.002-0.024,0.004-0.036,0.007c-3.186,0.631-6.439,1.107-9.75,1.423v-3.17h0.001c0-35.476,16.936-68.87,44.924-90.016
			c5.898,18.715,15.27,36.267,27.581,51.648c-15.074,20.68-37.549,35.146-62.679,40.101
			C153.125,134.502,153.111,134.504,153.097,134.507z M191.753,286.469c-17.165-17.165-26.618-39.985-26.618-64.258v-10.774v-59.142
			c25.456-6.88,48.163-21.985,64.432-42.785c29.598,28.566,69.278,44.732,110.7,44.732c2.189,0,4.391-0.061,6.596-0.153v57.349
			v10.774c0,50.103-40.762,90.864-90.864,90.864C231.728,313.076,208.912,303.627,191.753,286.469z M208.204,379.139
			L208.204,379.139l33.597,33.596l-15.345,15.34l-28.324-48.936H208.204z M79.216,491.922v-30.734
			c0-45.243,36.808-82.049,82.049-82.049h13.666l65.278,112.784H79.216z M256.001,479.12l-19.136-33.061l19.134-19.126
			l19.133,19.133L256.001,479.12z M432.783,491.922H271.79l65.276-112.784h13.666c45.243,0,82.05,36.807,82.05,82.049V491.922z"/>
	</g>
</g>
<g>
	<g>
		<path d="M374.181,458.893h-56.22c-5.545,0-10.039,4.495-10.039,10.039c0,5.545,4.496,10.039,10.039,10.039h56.22
			c5.544,0,10.039-4.495,10.039-10.039C384.22,463.387,379.725,458.893,374.181,458.893z"/>
	</g>
</g>
<g>
	<g>
		<path d="M406.307,458.893c-12.919,0-12.941,20.078,0,20.078C419.226,478.971,419.247,458.893,406.307,458.893z"/>
	</g>
</g>
<g>
</g>
<g>
</g>
<g>
</g>
<g>
</g>
<g>
</g>
<g>
</g>
<g>
</g>
<g>
</g>
<g>
</g>
<g>
</g>
<g>
</g>
<g>
</g>
<g>
</g>
<g>
</g>
<g>
</g>
</svg>
