<?xml version="1.0" encoding="iso-8859-1"?>
<!-- Generator: Adobe Illustrator 19.0.0, SVG Export Plug-In . SVG Version: 6.00 Build 0)  -->
<svg version="1.1" id="Capa_1" xmlns="http://www.w3.org/2000/svg" xmlns:xlink="http://www.w3.org/1999/xlink" x="0px" y="0px"
	 viewBox="0 0 512 512" style="enable-background:new 0 0 512 512;" xml:space="preserve">
<g>
	<g>
		<path d="M332.102,384.715h-45.167v-21.72c12.51-4.49,23.975-11.725,33.651-21.399c6.684-6.684,12.231-14.293,16.547-22.635
			c38.523-26.687,61.446-70.295,61.446-117.24c0-37.677-14.981-71.797-42.182-96.077c-18.671-16.665-42.176-27.983-68.124-33.101
			c6.95-7.709,11.189-17.909,11.189-29.081C299.46,19.496,279.964,0,256,0s-43.46,19.496-43.46,43.46
			c0,11.174,4.239,21.373,11.189,29.081c-25.95,5.118-49.455,16.436-68.124,33.102c-27.201,24.281-42.182,58.402-42.182,96.077
			c0,46.939,22.918,90.544,61.434,117.232c10.694,20.632,28.881,36.182,50.22,43.924v21.838h-45.167
			c-46.459,0-84.257,37.798-84.257,84.257v32.744c0,5.68,4.604,10.284,10.284,10.284h300.129c5.68,0,10.284-4.604,10.284-10.284
			v-32.744C416.348,422.513,378.556,384.715,332.102,384.715z M256,20.568c12.623,0,22.892,10.27,22.892,22.892
			c0,12.629-10.27,22.902-22.892,22.902c-12.623,0-22.892-10.274-22.892-22.902C233.108,30.838,243.377,20.568,256,20.568z
			 M175.464,164.022c-7.063,13.162-10.797,28.066-10.797,43.099v69.9c0,1.953,0.067,3.893,0.187,5.823
			c-19.672-22.081-30.863-50.789-30.863-81.123c0-64.738,51.313-111.726,122.01-111.726c70.696,0,122.01,46.988,122.01,111.726
			c0,30.335-11.191,59.043-30.864,81.122c0.12-1.93,0.187-3.87,0.187-5.823v-69.9c0-3.46-0.203-6.977-0.602-10.451
			c-0.526-4.569-4.02-8.233-8.559-8.975c-15.389-2.512-28.831-11.659-36.882-25.093c-1.858-3.102-5.208-4.998-8.823-4.998
			c-3.615,0-6.964,1.898-8.822,4.999c-9.67,16.143-26.663,25.78-45.457,25.78c-18.377,0-35.176-9.327-44.941-24.949
			c-1.944-3.109-5.39-4.94-9.061-4.827C180.522,158.728,177.198,160.792,175.464,164.022z M192.135,307.532
			c-4.578-9.555-6.898-19.82-6.898-30.512v-69.9c0-6.187,0.814-12.341,2.396-18.279c13.476,12.813,31.397,20.109,50.556,20.109
			c20.726,0,40.462-8.915,54.259-23.94c9.219,10.111,21.079,17.461,34.311,21.188c0.004,0.307,0.006,0.615,0.006,0.921v69.9
			c0,10.691-2.321,20.958-6.898,30.512c0,0.001-0.001,0.003-0.002,0.005c-3.464,7.242-8.114,13.806-13.821,19.514
			c-13.364,13.364-31.136,20.723-50.041,20.723C228.914,347.775,203.846,331.979,192.135,307.532z M245.644,368.343h20.722v16.372
			h-20.722V368.343z M245.716,491.432H116.22v-22.46c0-35.118,28.571-63.689,63.689-63.689h15.019
			c4.068,26.214,24.679,47.02,50.789,51.412V491.432z M215.881,405.283h80.237c-4.308,18.161-20.654,31.716-40.118,31.716
			S220.19,423.443,215.881,405.283z M266.284,491.432v-34.737c26.111-4.392,46.72-25.198,50.789-51.412h15.029
			c35.113,0,63.679,28.571,63.679,63.689v22.46H266.284z"/>
	</g>
</g>
<g>
	<g>
		<path d="M341.08,460.148h-37.022c-5.68,0-10.284,4.604-10.284,10.284c0,5.68,4.604,10.284,10.284,10.284h37.022
			c5.68,0,10.284-4.604,10.284-10.284C351.364,464.752,346.76,460.148,341.08,460.148z"/>
	</g>
</g>
<g>
	<g>
		<path d="M373.989,460.148c-13.234,0-13.256,20.568,0,20.568C387.223,480.716,387.245,460.148,373.989,460.148z"/>
	</g>
</g>
<g>
</g>
<g>
</g>
<g>
</g>
<g>
</g>
<g>
</g>
<g>
</g>
<g>
</g>
<g>
</g>
<g>
</g>
<g>
</g>
<g>
</g>
<g>
</g>
<g>
</g>
<g>
</g>
<g>
</g>
</svg>
