<?xml version="1.0" encoding="iso-8859-1"?>
<!-- Generator: Adobe Illustrator 19.0.0, SVG Export Plug-In . SVG Version: 6.00 Build 0)  -->
<svg version="1.1" id="Capa_1" xmlns="http://www.w3.org/2000/svg" xmlns:xlink="http://www.w3.org/1999/xlink" x="0px" y="0px"
	 viewBox="0 0 512 512" style="enable-background:new 0 0 512 512;" xml:space="preserve">
<g>
	<path style="fill:#EFEFEF;" d="M256,78.704c-19.428,0-35.233-15.811-35.233-35.243c0-19.428,15.806-35.233,35.233-35.233
		s35.233,15.806,35.233,35.233C291.233,62.893,275.428,78.704,256,78.704z"/>
	<path style="fill:#EFEFEF;" d="M327.285,311.087c5.114-10.673,7.707-22.134,7.707-34.067v-69.9c0-2.487-0.121-5.009-0.361-7.519
		c-17.256-3.246-32.398-13.276-42.164-27.874c-12.051,17.965-32.552,28.996-54.278,28.996c-21.461,0-41.176-10.313-53.426-27.763
		c-5.08,10.588-7.753,22.326-7.753,34.159v69.9c0,11.933,2.593,23.394,7.707,34.067l3.227,6.736l-6.221-4.134
		c-37.616-24.997-60.072-66.854-60.072-111.967c0-35.301,14.005-67.242,39.433-89.94C185.738,89.775,219.446,77.656,256,77.656
		s70.262,12.12,94.916,34.126c25.429,22.698,39.433,54.639,39.433,89.94c0,45.114-22.456,86.971-60.072,111.967l-6.221,4.134
		L327.285,311.087z"/>
</g>
<path style="fill:#FBC8AD;" d="M256,360.115c-31.807,0-61.244-18.547-74.995-47.251c-5.382-11.232-8.11-23.292-8.11-35.844v-69.9
	c0-13.68,3.396-27.238,9.819-39.209l1.676-3.125l1.88,3.007c11.278,18.043,30.686,28.816,51.918,28.816
	c21.713,0,41.345-11.132,52.514-29.78l1.764-2.945l1.765,2.945c9.297,15.516,24.829,26.08,42.613,28.984l1.534,0.25l0.177,1.545
	c0.364,3.164,0.548,6.364,0.548,9.512v69.9c0,12.553-2.728,24.613-8.11,35.844c-4.069,8.505-9.529,16.215-16.227,22.913
	C299.073,351.472,278.202,360.115,256,360.115z"/>
<rect x="233.303" y="356.002" style="fill:#E0B39B;" width="45.404" height="41.054"/>
<path style="fill:#30C9B0;" d="M103.879,503.773v-34.801c0-41.923,34.107-76.03,76.03-76.03h26.625v2.828
	c0,27.27,22.191,49.456,49.466,49.456h2.057v58.547H103.879z"/>
<path style="fill:#259986;" d="M256,449.34c-29.544,0-53.58-24.031-53.58-53.569v-2.828H309.58v2.828
	C309.58,425.309,285.544,449.34,256,449.34z"/>
<path style="fill:#30C9B0;" d="M253.943,503.773v-58.547H256c27.275,0,49.466-22.186,49.466-49.456v-2.828h26.636
	c41.918,0,76.019,34.107,76.019,76.03v34.801H253.943z"/>
<path d="M416.348,501.716v-32.744c0-46.459-37.793-84.257-84.247-84.257h-45.167v-21.72c12.509-4.49,23.975-11.725,33.651-21.399
	c6.684-6.684,12.231-14.293,16.547-22.635c38.523-26.687,61.446-70.295,61.446-117.24c0-37.677-14.981-71.797-42.182-96.077
	c-18.671-16.665-42.176-27.983-68.124-33.101c6.95-7.709,11.189-17.909,11.189-29.081C299.46,19.496,279.964,0,256,0
	s-43.46,19.496-43.46,43.46c0,11.174,4.239,21.373,11.189,29.081c-25.95,5.118-49.455,16.436-68.124,33.102
	c-27.201,24.281-42.182,58.402-42.182,96.077c0,46.939,22.918,90.544,61.434,117.232c10.694,20.632,28.881,36.182,50.22,43.924
	v21.838h-45.167c-46.459,0-84.257,37.798-84.257,84.257v32.744c0,5.68,4.604,10.284,10.284,10.284h300.129
	C411.744,512,416.348,507.396,416.348,501.716z M256,436.999c-19.464,0-35.81-13.555-40.119-31.716h80.237
	C291.81,423.443,275.464,436.999,256,436.999z M256,20.568c12.623,0,22.892,10.27,22.892,22.892
	c0,12.629-10.27,22.903-22.892,22.903s-22.892-10.274-22.892-22.903C233.108,30.838,243.377,20.568,256,20.568z M133.99,201.721
	c0-64.738,51.313-111.726,122.01-111.726s122.01,46.988,122.01,111.726c0,30.335-11.191,59.043-30.864,81.122
	c0.12-1.93,0.187-3.87,0.187-5.823v-69.9c0-3.46-0.203-6.977-0.602-10.451c-0.526-4.569-4.02-8.233-8.559-8.975
	c-15.389-2.512-28.831-11.659-36.882-25.093c-1.858-3.102-5.208-4.998-8.823-4.998c-3.615,0-6.964,1.898-8.822,4.999
	c-9.67,16.143-26.663,25.78-45.457,25.78c-18.377,0-35.176-9.327-44.941-24.949c-1.944-3.109-5.39-4.94-9.061-4.827
	c-3.664,0.121-6.988,2.185-8.722,5.416c-7.063,13.163-10.797,28.066-10.797,43.099v69.9c0,1.953,0.067,3.892,0.187,5.823
	C145.181,260.764,133.99,232.056,133.99,201.721z M192.135,307.532c-4.578-9.555-6.899-19.82-6.899-30.512v-69.9
	c0-6.187,0.814-12.341,2.396-18.279c13.476,12.813,31.397,20.109,50.556,20.109c20.726,0,40.462-8.915,54.26-23.94
	c9.219,10.111,21.079,17.461,34.311,21.188c0.004,0.307,0.006,0.615,0.006,0.921v69.9c0,10.691-2.321,20.958-6.899,30.512
	c0,0.001-0.001,0.003-0.002,0.005c-3.464,7.242-8.114,13.806-13.821,19.514c-13.364,13.364-31.136,20.723-50.041,20.723
	C228.914,347.775,203.846,331.979,192.135,307.532z M245.644,368.343h20.722v16.372h-20.722L245.644,368.343L245.644,368.343z
	 M116.22,468.972c0-35.118,28.571-63.689,63.689-63.689h15.019c4.068,26.214,24.679,47.02,50.789,51.412v34.737H116.22V468.972z
	 M395.78,491.432H266.284v-34.737c26.111-4.392,46.72-25.198,50.789-51.412h15.029c35.113,0,63.679,28.571,63.679,63.689
	L395.78,491.432L395.78,491.432z"/>
<path d="M341.08,460.148h-37.022c-5.68,0-10.284,4.604-10.284,10.284s4.604,10.284,10.284,10.284h37.022
	c5.68,0,10.284-4.604,10.284-10.284S346.76,460.148,341.08,460.148z"/>
<path d="M373.988,480.716c13.234,0,13.256-20.568,0-20.568C360.754,460.148,360.732,480.716,373.988,480.716z"/>
<g>
</g>
<g>
</g>
<g>
</g>
<g>
</g>
<g>
</g>
<g>
</g>
<g>
</g>
<g>
</g>
<g>
</g>
<g>
</g>
<g>
</g>
<g>
</g>
<g>
</g>
<g>
</g>
<g>
</g>
</svg>
