<?xml version="1.0" encoding="iso-8859-1"?>
<!-- Generator: Adobe Illustrator 19.0.0, SVG Export Plug-In . SVG Version: 6.00 Build 0)  -->
<svg version="1.1" id="Capa_1" xmlns="http://www.w3.org/2000/svg" xmlns:xlink="http://www.w3.org/1999/xlink" x="0px" y="0px"
	 viewBox="0 0 512 512" style="enable-background:new 0 0 512 512;" xml:space="preserve">
<path style="fill:#E0B39B;" d="M360.739,236.173v-80.715h17.267c7.077,0,13.883,2.092,19.684,6.052
	c9.612,6.534,15.352,17.37,15.352,28.985v10.642c0,19.319-15.717,35.037-35.036,35.037H360.739z"/>
<path style="fill:#917464;" d="M395.427,164.826c-5.13-3.502-11.154-5.353-17.42-5.353h-13.252v4.006h-4.016
	c0-15.532-3.312-30.459-9.846-44.386L256,86.363l-94.904,32.728c-6.534,13.938-9.845,28.867-9.845,44.387h-4.016v-4.006h-13.252
	c-6.255,0-12.28,1.851-17.422,5.354l-3.138,2.137v-48.542c0-16.898,5.425-33.454,15.278-46.62
	c14.494-19.365,33.505-35.41,54.982-46.403C206.196,13.874,230.528,8.031,256,8.031c25.462,0,49.793,5.843,72.313,17.368
	c21.473,10.993,40.482,27.039,54.976,46.403c9.851,13.155,15.278,29.713,15.278,46.62v48.546L395.427,164.826z"/>
<path style="fill:#E0B39B;" d="M133.983,236.173c-19.319,0-35.037-15.717-35.037-35.037v-10.642
	c0-11.615,5.741-22.452,15.357-28.988c5.808-3.956,12.614-6.049,19.681-6.049h17.267v80.715H133.983z"/>
<path style="fill:#FBC8AD;" d="M256,336.906c-29.058,0-56.37-11.315-76.905-31.86c-20.544-20.534-31.858-47.842-31.858-76.894
	v-64.673c0-16.405,3.565-32.177,10.596-46.876l0.362-0.758L256,82.115l97.794,33.729l0.362,0.757
	c7.032,14.688,10.598,30.46,10.598,46.877v64.673C364.755,288.118,315.967,336.906,256,336.906z"/>
<rect x="226.796" y="332.89" style="fill:#E0B39B;" width="58.408" height="52.666"/>
<path style="fill:#44C973;" d="M253.992,503.969v-50.281l60.301-72.147h37.522c40.095,0,72.714,32.615,72.714,72.704v49.724H253.992
	z"/>
<polygon style="fill:#248A48;" points="192.484,381.54 319.526,381.54 256,457.546 "/>
<path style="fill:#44C973;" d="M87.472,503.969v-49.724c0-40.09,32.619-72.704,72.714-72.704h37.533l60.29,72.147v50.281H87.472z"/>
<path d="M432.56,501.961v-47.716c0-44.518-36.223-80.735-80.745-80.735h-34.999c-0.986-0.147-1.984-0.147-2.965,0h-20.616v-34.658
	c41.298-13.928,72.328-50.364,78.442-94.646h6.329c23.748,0,43.067-19.32,43.067-43.068v-10.642c0-12.404-5.33-24.081-14.477-32.2
	v-39.873c0-18.632-5.995-36.898-16.879-51.432c-15.221-20.339-35.19-37.193-57.747-48.741C308.308,6.14,282.747,0,256,0
	c-26.757,0-52.319,6.14-75.978,18.25c-22.559,11.547-42.529,28.401-57.752,48.74c-10.885,14.546-16.879,32.811-16.879,51.432v39.872
	c-9.147,8.119-14.478,19.794-14.478,32.2v10.642c0,23.748,19.32,43.068,43.068,43.068h6.317c3.431,25.109,14.885,48.3,33.113,66.519
	c12.967,12.973,28.451,22.514,45.351,28.178v34.608h-20.613c-0.977-0.145-1.97-0.146-2.952,0h-35.014
	c-44.523,0-80.745,36.218-80.745,80.735v47.716c0,5.545,4.496,10.039,10.039,10.039h333.041
	C428.065,512,432.56,507.505,432.56,501.961z M256.001,438.76l-37.749-45.172h75.505L256.001,438.76z M400.996,201.136
	c0,12.677-10.312,22.99-22.989,22.99h-5.22v-56.621h5.22c4.644,0,9.102,1.367,12.892,3.954c0.006,0.003,0.011,0.007,0.017,0.011
	c6.312,4.291,10.08,11.403,10.08,19.024v10.642H400.996z M138.346,79.021C166.381,41.562,209.264,20.078,256,20.078
	c23.536,0,46.02,5.398,66.824,16.044c19.848,10.161,37.419,24.995,50.821,42.901c8.302,11.086,12.874,25.078,12.874,39.4v29.85
	c-2.78-0.556-5.628-0.846-8.512-0.846h-6.308c-1.624-11.882-5.067-23.366-10.298-34.293c-0.005-0.01-0.011-0.02-0.017-0.031
	c-0.114-0.238-0.244-0.468-0.376-0.696c-0.087-0.149-0.179-0.293-0.272-0.436c-0.121-0.186-0.241-0.373-0.375-0.551
	c-0.106-0.142-0.224-0.271-0.336-0.406c-0.098-0.116-0.191-0.238-0.294-0.35c-0.111-0.12-0.232-0.231-0.348-0.345
	c-0.118-0.116-0.232-0.237-0.355-0.347c-0.104-0.093-0.217-0.176-0.325-0.265c-0.147-0.12-0.289-0.243-0.444-0.355
	c-0.096-0.07-0.199-0.131-0.297-0.197c-0.173-0.116-0.343-0.236-0.524-0.342c-0.111-0.065-0.23-0.119-0.343-0.181
	c-0.253-0.136-0.511-0.262-0.778-0.376c-0.218-0.093-0.436-0.188-0.659-0.265c-0.012-0.004-0.023-0.01-0.034-0.014l-96.346-33.23
	c-2.12-0.731-4.425-0.732-6.547,0l-96.356,33.23c-0.015,0.005-0.028,0.012-0.043,0.017c-0.168,0.058-0.329,0.132-0.493,0.199
	c-0.681,0.279-1.316,0.622-1.899,1.026c-0.065,0.045-0.135,0.084-0.2,0.132c-0.175,0.127-0.338,0.266-0.504,0.404
	c-0.087,0.073-0.18,0.14-0.265,0.216c-0.142,0.126-0.272,0.262-0.406,0.396c-0.099,0.099-0.204,0.193-0.299,0.297
	c-0.12,0.131-0.229,0.271-0.342,0.408c-0.096,0.116-0.198,0.227-0.289,0.348c-0.177,0.234-0.339,0.478-0.494,0.726
	c-0.055,0.088-0.106,0.181-0.16,0.271c-0.132,0.225-0.259,0.452-0.372,0.687c-0.006,0.012-0.012,0.022-0.018,0.033
	c-5.229,10.932-8.67,22.414-10.294,34.289h-6.309c-2.884,0-5.731,0.29-8.512,0.847v-29.847
	C125.47,104.11,130.043,90.117,138.346,79.021z M110.994,201.136v-10.642c0-7.622,3.769-14.734,10.081-19.024
	c0.003-0.002,0.006-0.004,0.009-0.006c3.803-2.591,8.263-3.959,12.9-3.959h5.22v56.621h-5.22
	C121.307,224.126,110.994,213.812,110.994,201.136z M159.282,228.151v-64.673c0-13.209,2.605-25.946,7.732-37.932L256,94.859
	l88.977,30.688c5.126,11.977,7.731,24.715,7.731,37.931v64.673c0,53.325-43.383,96.708-96.708,96.708
	c-25.839,0-50.126-10.061-68.388-28.334C169.344,278.267,159.282,253.984,159.282,228.151z M238.843,344.937h34.314v28.572h-34.314
	V344.937z M99.519,454.244c0-33.447,27.214-60.657,60.667-60.657h31.9l53.875,64.471v33.863H99.519V454.244z M412.481,491.922
	H266.039v-33.863l53.885-64.471h31.891c33.452,0,60.667,27.21,60.667,60.657L412.481,491.922L412.481,491.922z"/>
<path d="M354.103,457.889h-56.22c-5.544,0-10.039,4.495-10.039,10.039c0,5.545,4.496,10.039,10.039,10.039h56.22
	c5.544,0,10.039-4.495,10.039-10.039C364.142,462.383,359.647,457.889,354.103,457.889z"/>
<path d="M386.229,457.889c-12.919,0-12.941,20.078,0,20.078C399.148,477.967,399.169,457.889,386.229,457.889z"/>
<g>
</g>
<g>
</g>
<g>
</g>
<g>
</g>
<g>
</g>
<g>
</g>
<g>
</g>
<g>
</g>
<g>
</g>
<g>
</g>
<g>
</g>
<g>
</g>
<g>
</g>
<g>
</g>
<g>
</g>
</svg>
