<?xml version="1.0" encoding="iso-8859-1"?>
<!-- Generator: Adobe Illustrator 19.0.0, SVG Export Plug-In . SVG Version: 6.00 Build 0)  -->
<svg version="1.1" id="Capa_1" xmlns="http://www.w3.org/2000/svg" xmlns:xlink="http://www.w3.org/1999/xlink" x="0px" y="0px"
	 viewBox="0 0 512 512" style="enable-background:new 0 0 512 512;" xml:space="preserve">
<g>
	<g>
		<path d="M351.814,373.509h-34.999c-0.986-0.147-1.984-0.147-2.965,0h-20.616v-34.658c41.298-13.928,72.328-50.364,78.442-94.646
			h6.329c23.748,0,43.067-19.32,43.067-43.068v-10.642c0-12.404-5.33-24.081-14.477-32.2v-39.873
			c0-18.632-5.995-36.898-16.879-51.432c-15.221-20.339-35.19-37.193-57.747-48.741C308.308,6.14,282.747,0,256,0
			c-26.757,0-52.319,6.14-75.978,18.25c-22.559,11.547-42.529,28.401-57.752,48.74c-10.885,14.546-16.879,32.811-16.879,51.432
			v39.872c-9.147,8.119-14.478,19.794-14.478,32.2v10.642c0,23.748,19.32,43.068,43.068,43.068h6.317
			c3.431,25.109,14.885,48.3,33.113,66.519c12.967,12.973,28.451,22.514,45.351,28.178v34.608h-20.612
			c-0.977-0.145-1.97-0.146-2.952,0h-35.014c-44.523,0-80.745,36.219-80.745,80.735v47.716c0,5.545,4.496,10.039,10.039,10.039
			h333.041c5.545,0,10.039-4.495,10.039-10.039v-47.716C432.56,409.727,396.337,373.509,351.814,373.509z M390.9,171.459
			c0.006,0.003,0.011,0.007,0.017,0.011c6.312,4.291,10.08,11.403,10.08,19.024v10.642h-0.001c0,12.677-10.312,22.99-22.989,22.99
			h-5.22v-56.621h5.22C382.652,167.504,387.109,168.872,390.9,171.459z M139.205,224.125h-5.22
			c-12.677,0-22.991-10.313-22.991-22.99v-10.642c0-7.622,3.769-14.734,10.081-19.024c0.003-0.002,0.006-0.004,0.009-0.006
			c3.803-2.591,8.263-3.959,12.9-3.959h5.22V224.125z M156.329,107.992c-0.168,0.058-0.329,0.131-0.493,0.199
			c-0.681,0.279-1.316,0.622-1.899,1.026c-0.065,0.045-0.135,0.084-0.2,0.132c-0.175,0.128-0.338,0.266-0.504,0.404
			c-0.087,0.073-0.18,0.14-0.265,0.216c-0.142,0.126-0.272,0.262-0.406,0.396c-0.099,0.099-0.204,0.193-0.299,0.297
			c-0.12,0.13-0.229,0.271-0.342,0.408c-0.096,0.116-0.198,0.227-0.289,0.348c-0.177,0.234-0.339,0.478-0.494,0.726
			c-0.055,0.088-0.106,0.181-0.16,0.271c-0.131,0.225-0.259,0.452-0.372,0.687c-0.006,0.012-0.012,0.022-0.018,0.033
			c-5.229,10.932-8.67,22.414-10.294,34.289h-6.309c-2.884,0-5.731,0.29-8.512,0.847v-29.847
			c-0.002-14.313,4.571-28.306,12.874-39.402C166.381,41.562,209.264,20.078,256,20.078c23.536,0,46.02,5.398,66.824,16.044
			c19.848,10.161,37.419,24.995,50.821,42.901c8.302,11.086,12.874,25.078,12.874,39.4v29.85c-2.78-0.556-5.628-0.846-8.512-0.846
			h-6.308c-1.624-11.882-5.067-23.366-10.298-34.293c-0.005-0.01-0.011-0.02-0.017-0.031c-0.114-0.238-0.244-0.468-0.376-0.696
			c-0.087-0.149-0.179-0.293-0.272-0.436c-0.121-0.186-0.241-0.373-0.375-0.551c-0.106-0.142-0.224-0.271-0.336-0.406
			c-0.098-0.116-0.191-0.238-0.294-0.35c-0.111-0.12-0.232-0.231-0.348-0.345c-0.118-0.116-0.232-0.237-0.355-0.347
			c-0.104-0.093-0.217-0.176-0.325-0.265c-0.147-0.12-0.289-0.243-0.444-0.355c-0.096-0.07-0.199-0.13-0.297-0.197
			c-0.173-0.116-0.343-0.236-0.524-0.342c-0.111-0.065-0.23-0.119-0.343-0.181c-0.253-0.136-0.511-0.262-0.778-0.376
			c-0.218-0.093-0.436-0.188-0.659-0.265c-0.012-0.004-0.023-0.01-0.034-0.014l-96.346-33.23c-2.12-0.731-4.425-0.732-6.547,0
			l-96.356,33.23C156.357,107.98,156.344,107.987,156.329,107.992z M187.612,296.524c-18.268-18.257-28.33-42.54-28.33-68.373
			v-64.673c0-13.209,2.605-25.946,7.732-37.932L256,94.859l88.977,30.688c5.126,11.977,7.731,24.715,7.731,37.931v64.673
			c0,53.325-43.383,96.708-96.708,96.708C230.161,324.858,205.874,314.797,187.612,296.524z M273.157,344.937v28.572h-34.314
			v-28.572H273.157z M245.961,491.922H99.519v-37.677c0-33.447,27.214-60.657,60.667-60.657h31.9l53.875,64.471V491.922z
			 M218.252,393.587h75.505l-37.755,45.172L218.252,393.587z M412.482,491.922L412.482,491.922H266.039v-33.863l53.885-64.471
			h31.891c33.452,0,60.667,27.21,60.667,60.657V491.922z"/>
	</g>
</g>
<g>
	<g>
		<path d="M354.103,457.889h-56.22c-5.544,0-10.039,4.495-10.039,10.039s4.496,10.039,10.039,10.039h56.22
			c5.544,0,10.039-4.495,10.039-10.039S359.647,457.889,354.103,457.889z"/>
	</g>
</g>
<g>
	<g>
		<path d="M386.229,457.889c-12.919,0-12.941,20.078,0,20.078C399.148,477.967,399.169,457.889,386.229,457.889z"/>
	</g>
</g>
<g>
</g>
<g>
</g>
<g>
</g>
<g>
</g>
<g>
</g>
<g>
</g>
<g>
</g>
<g>
</g>
<g>
</g>
<g>
</g>
<g>
</g>
<g>
</g>
<g>
</g>
<g>
</g>
<g>
</g>
</svg>
