<?xml version="1.0" standalone="no"?>
<!DOCTYPE svg PUBLIC "-//W3C//DTD SVG 20010904//EN"
 "http://www.w3.org/TR/2001/REC-SVG-20010904/DTD/svg10.dtd">
<svg version="1.0" xmlns="http://www.w3.org/2000/svg"
 width="600.000000pt" height="600.000000pt" viewBox="0 0 600.000000 600.000000"
 preserveAspectRatio="xMidYMid meet">
<metadata>
Created by potrace 1.15, written by Peter Selinger 2001-2017
</metadata>
<g transform="translate(0.000000,600.000000) scale(0.100000,-0.100000)"
fill="#000000" stroke="none">
<path d="M362 4708 c-138 -15 -264 -107 -325 -236 -30 -63 -32 -73 -32 -182 0
-208 -139 -50 1403 -1592 1542 -1542 1384 -1403 1592 -1403 208 0 50 -139
1592 1403 1542 1542 1403 1384 1403 1592 0 109 -2 119 -32 182 -41 88 -113
160 -201 201 -63 30 -73 32 -182 32 -205 0 -68 118 -1412 -1224 l-1168 -1166
-1167 1166 c-1089 1086 -1172 1167 -1229 1192 -75 33 -158 45 -242 35z"/>
</g>
</svg>
